<?xml version="1.0" encoding="utf-8"?>
<!-- Generator: Adobe Illustrator 19.0.0, SVG Export Plug-In . SVG Version: 6.00 Build 0)  -->
<svg version="1.1" id="Calque_1" xmlns="http://www.w3.org/2000/svg" xmlns:xlink="http://www.w3.org/1999/xlink" x="0px" y="0px"
	 viewBox="0 0 8.7 8.5" style="enable-background:new 0 0 8.7 8.5;" xml:space="preserve">
<style type="text/css">
	.st0{fill:#B22727;}
</style>
<path id="XMLID_2_" class="st0" d="M3.7,0.6l0.4-0.4C4.3,0,4.6,0,4.8,0.1l3.8,3.8c0.2,0.2,0.2,0.5,0,0.7L4.8,8.4
	c-0.2,0.2-0.5,0.2-0.7,0L3.7,7.9c-0.2-0.2-0.2-0.5,0-0.7L6.1,5H0.5C0.2,5,0,4.8,0,4.6V3.9c0-0.3,0.2-0.5,0.5-0.5h5.6L3.7,1.2
	C3.5,1.1,3.5,0.8,3.7,0.6z"/>
</svg>
