<?xml version="1.0" encoding="utf-8"?>
<!-- Generator: Adobe Illustrator 24.3.0, SVG Export Plug-In . SVG Version: 6.00 Build 0)  -->
<svg version="1.1" id="Calque_1" xmlns="http://www.w3.org/2000/svg" xmlns:xlink="http://www.w3.org/1999/xlink" x="0px" y="0px"
	 viewBox="0 0 33.1 33.9" style="enable-background:new 0 0 33.1 33.9;" xml:space="preserve">
<style type="text/css">
	.st0{fill:#FFFFFF;}
</style>
<path id="Tracé_1229" class="st0" d="M30.1,27.3c-3.2-4.1-7.9-7.6-11.9-11.1C22.1,12.4,26,8.7,29.9,5c1.6-1.5-0.8-3.8-2.4-2.4
	c-4,3.7-8,7.5-11.9,11.3C12.3,10.6,8.8,7,4.9,4.6C3.8,4,2.3,5.3,3.1,6.4c2.7,3.8,6.6,6.8,10.2,9.9C9.5,20.1,5.8,24,2.1,27.9
	c-1.4,1.6,0.8,3.9,2.3,2.3c3.8-3.9,7.6-7.8,11.4-11.6c4,3.6,8.8,7.1,12,11.2c0.4,0.6,1.1,0.8,1.7,0.4c0.1,0,0.1-0.1,0.2-0.2l0.4-0.4
	C30.7,29,30.7,28,30.1,27.3z"/>
</svg>
