<?xml version="1.0" encoding="utf-8"?>
<!-- Generator: Adobe Illustrator 24.3.0, SVG Export Plug-In . SVG Version: 6.00 Build 0)  -->
<svg version="1.1" id="Calque_1" xmlns="http://www.w3.org/2000/svg" xmlns:xlink="http://www.w3.org/1999/xlink" x="0px" y="0px"
	 viewBox="0 0 95.4 91.9" style="enable-background:new 0 0 95.4 91.9;" xml:space="preserve">
<style type="text/css">
	.st0{fill:#FFFFFF;}
</style>
<g>
	<path class="st0" d="M48.3,4.2C25.4,4.2,6.8,22.7,6.8,45.7c0,22.9,18.6,41.5,41.5,41.5c22.9,0,41.5-18.6,41.5-41.5
		C89.8,22.7,71.2,4.2,48.3,4.2z M53.7,47.3l-7.6,7.6c-0.4,0.4-1,0.7-1.6,0.7s-1.2-0.2-1.6-0.7c-0.9-0.9-0.9-2.3,0-3.2l6-6l-6-6
		c-0.9-0.9-0.9-2.3,0-3.2c0.9-0.9,2.3-0.9,3.2,0l0,0l7.7,7.7C54.6,45,54.6,46.4,53.7,47.3z"/>
</g>
</svg>
