<?xml version="1.0" encoding="utf-8"?>
<!-- Generator: Adobe Illustrator 26.0.1, SVG Export Plug-In . SVG Version: 6.00 Build 0)  -->
<svg version="1.1" id="Calque_1" xmlns="http://www.w3.org/2000/svg" xmlns:xlink="http://www.w3.org/1999/xlink" x="0px" y="0px"
	 viewBox="0 0 125.4 107.5" style="enable-background:new 0 0 125.4 107.5;" xml:space="preserve">
<style type="text/css">
	.st0{fill:none;}
	.st1{fill:#FFFFFF;}
</style>
<g>
	<path class="st0" d="M49.4,91.7C55.6,95,62.6,97,70.2,97c23.8,0,43.2-19.3,43.2-43.2c0-0.7,0-1.5-0.1-2.2l-3.8,2.9l-12.7-0.6
		l-5,7.2L96,73.3l-5.9,13.9l-11.2,2.9V79.8l-11.6-6.1l-4.3-8l1.4-10.1h15.9l3.7-3.4l-0.7-2.4l-7.5-1.3l-8.3,2.8L64.7,38l6.4-1.1
		l5.2-0.7v-4.8l6.7-9.6l9.1,2.8l2.5-6.4c-7-4.8-15.4-7.6-24.5-7.6c-10.3,0-19.7,3.6-27.2,9.6v48.5C50.8,73.6,53.5,83.6,49.4,91.7z"
		/>
	<path class="st0" d="M79,32.1v6.4l-7.5,1L68,40.1l1.6,7.4l6-2l9.9,1.8l1.7,5.7l-5.8,5.3H66.9l-1,6.8l3.4,6.5l12.3,6.5v8.4l6.4-1.6
		l5-11.6l-4.3-12.6l6.7-9.6l13.2,0.6l3.9-3c-0.9-15.8-11.8-25.8-15.7-28.9l-3.2,8L84,24.9L79,32.1z"/>
	<path class="st1" d="M70.2,7.8C60,7.8,50.6,11.1,43,16.6v3.5c7.4-6,16.9-9.6,27.2-9.6c9.1,0,17.5,2.8,24.5,7.6l1-2.5l1.3,0.8
		c3.3,2.4,6.3,5.2,8.9,8.4c5.7,6.9,9,15.4,9.5,24.4V50l-2,1.6c0,0.7,0.1,1.5,0.1,2.2C113.4,77.7,94,97,70.2,97
		c-7.5,0-14.6-1.9-20.7-5.3c-0.2,0.5-0.5,1-0.8,1.4c-0.2,0.3-0.4,0.6-0.6,1c6.6,3.6,14.1,5.7,22.2,5.7c25.4,0,46-20.6,46-46
		C116.2,28.4,95.6,7.8,70.2,7.8z"/>
	<path class="st1" d="M24.2,53.8c0,0.6,0,1.2,0,1.9v-3.7C24.2,52.5,24.2,53.1,24.2,53.8z"/>
	<path class="st1" d="M83,21.8l-6.7,9.6v4.8l-5.2,0.7L64.7,38l2.8,13.3l8.3-2.8l7.5,1.3l0.7,2.4l-3.7,3.4H64.4L63,65.7l4.3,8
		l11.6,6.1v10.3l11.2-2.9L96,73.3l-4.2-12.2l5-7.2l12.7,0.6l3.8-2.9c-0.7-13.9-7.9-26-18.7-33.4l-2.5,6.4L83,21.8z M96.8,19.8
		c3.9,3.1,14.8,13.1,15.7,28.9l-3.9,3l-13.2-0.6l-6.7,9.6L93,73.3l-5,11.6l-6.4,1.6v-8.4l-12.3-6.5l-3.4-6.5l1-6.8h14.5l5.8-5.3
		l-1.7-5.7l-9.9-1.8l-6,2L68,40.1l3.5-0.6l7.5-1v-6.4l5-7.2l9.6,2.9L96.8,19.8z"/>
	<path class="st1" d="M113.3,51.6l2-1.6v-0.7c-0.5-9-3.8-17.5-9.5-24.4c-2.6-3.2-5.6-6-8.9-8.4l-1.3-0.8l-1,2.5
		C105.4,25.6,112.6,37.7,113.3,51.6z"/>
	<path class="st0" d="M32.1,17c0-0.8,0.6-1.4,1.4-1.4s1.4,0.6,1.4,1.4v7.2c1.6-1.9,3.4-3.7,5.4-5.4v-3.3c-0.1-3.6-3.1-6.6-6.7-6.6
		c-3.7,0-6.6,3-6.6,6.6v22.3c1.3-3.5,3-6.9,5.1-10V17z"/>
	<path class="st0" d="M34.9,28.7v48.7c0,0,0,0.1,0,0.1c2.8,0.6,5,3.1,5,6.2c0,0.3,0,0.6-0.1,0.8c2.2,2.2,4.6,4.1,7.3,5.8
		c2.1-4.3,2.1-9.4-0.4-13.9C45.4,74,43.4,72,41,70.7l-0.7-0.4V22.6C38.3,24.5,36.5,26.5,34.9,28.7z"/>
	<path class="st0" d="M33.6,90c-3.5,0-6.3-2.8-6.3-6.3c0-2.6,1.5-4.8,3.7-5.7c-1.6-2.6-3-5.3-4-8.2v0.6l-0.7,0.4
		c-7.2,4.1-9.8,13.2-5.7,20.4c4.1,7.2,13.2,9.8,20.4,5.7c1.9-1.1,3.4-2.5,4.6-4.1c-2.5-1.6-4.8-3.4-6.9-5.3
		C37.6,88.9,35.7,90,33.6,90z"/>
	<path class="st0" d="M32.1,33.2c-3,5.6-4.9,11.9-5.1,18.7v3.7c0.3,6.8,2.1,13.1,5.1,18.7V33.2z"/>
	<path class="st1" d="M25.6,15.5c0-4.4,3.6-8,8-8c4.4,0,8,3.6,8,8v2.2c0.5-0.4,0.9-0.7,1.4-1.1v-1.1c0-5.2-4.2-9.4-9.4-9.4
		c-5.2,0-9.4,4.2-9.4,9.4v36.4c0.1-3.3,0.6-6.5,1.4-9.6V15.5z"/>
	<path class="st1" d="M41.6,69.5c2.6,1.5,4.7,3.6,6.3,6.2c2.8,4.9,2.8,10.6,0.4,15.3c0.4,0.2,0.7,0.4,1.1,0.6
		c4.1-8.1,1.4-18.1-6.4-23V20.2c-0.5,0.4-0.9,0.8-1.4,1.2V69.5z"/>
	<path class="st1" d="M41.7,98c-7.9,4.5-17.9,1.7-22.3-6.2c-4.5-7.9-1.7-17.9,6.2-22.3v-4.2c-0.8-3.1-1.3-6.3-1.4-9.6v13.2
		c-5.2,3.2-8.3,8.9-8.3,15c0,9.8,7.9,17.7,17.7,17.7c5.7,0,11-2.8,14.4-7.4c-0.4-0.2-0.7-0.4-1.1-0.6C45.5,95.2,43.8,96.8,41.7,98z"
		/>
	<path class="st1" d="M49.4,91.7c-0.4-0.2-0.7-0.4-1.1-0.6c-0.4,0.8-0.9,1.6-1.5,2.4c0.4,0.2,0.7,0.4,1.1,0.6c0.2-0.3,0.4-0.6,0.6-1
		C48.9,92.6,49.2,92.1,49.4,91.7z"/>
	<path class="st1" d="M41.6,21.4c0.5-0.4,0.9-0.8,1.4-1.2v-3.5c-0.5,0.3-0.9,0.7-1.4,1.1V21.4z"/>
	<path class="st1" d="M25.6,42.3c-0.8,3.1-1.3,6.3-1.4,9.6v3.7c0.1,3.3,0.6,6.5,1.4,9.6V42.3z"/>
	<path class="st1" d="M27,53.8c0,0.6,0,1.2,0,1.9v-3.7C27,52.5,27,53.1,27,53.8z"/>
	<path class="st1" d="M47.9,75.7c-1.6-2.6-3.7-4.7-6.3-6.2V21.4c-0.4,0.4-0.9,0.8-1.3,1.2v47.7l0.7,0.4c2.4,1.3,4.4,3.3,5.7,5.7
		c2.5,4.5,2.5,9.6,0.4,13.9c0.4,0.3,0.8,0.5,1.2,0.7C50.7,86.3,50.7,80.6,47.9,75.7z"/>
	<path class="st1" d="M41,96.8c-7.2,4.1-16.3,1.5-20.4-5.7c-4.1-7.2-1.5-16.3,5.7-20.4l0.7-0.4v-0.6c-0.5-1.5-1-2.9-1.4-4.5v4.2
		c-7.9,4.4-10.7,14.4-6.2,22.3c4.4,7.9,14.4,10.7,22.3,6.2c2.1-1.2,3.8-2.8,5.1-4.6c-0.4-0.2-0.8-0.5-1.2-0.7
		C44.4,94.3,42.9,95.7,41,96.8z"/>
	<path class="st1" d="M27,15.5c0-3.6,2.9-6.6,6.6-6.6c3.6,0,6.6,3,6.7,6.6v3.3c0.4-0.4,0.9-0.7,1.3-1.1v-2.2c0-4.4-3.6-8-8-8
		c-4.4,0-8,3.6-8,8v26.8c0.4-1.5,0.9-3,1.4-4.5V15.5z"/>
	<path class="st1" d="M27,55.6c0-0.6,0-1.2,0-1.9s0-1.2,0-1.9V37.8c-0.5,1.5-1,2.9-1.4,4.5v23c0.4,1.5,0.9,3,1.4,4.5V55.6z"/>
	<path class="st1" d="M40.3,22.6c0.4-0.4,0.9-0.8,1.3-1.2v-3.6c-0.4,0.3-0.9,0.7-1.3,1.1V22.6z"/>
	<path class="st1" d="M45.6,92.7c0.4,0.2,0.8,0.5,1.2,0.7c0.6-0.8,1.1-1.6,1.5-2.4c-0.4-0.2-0.8-0.5-1.2-0.7
		C46.7,91.1,46.2,91.9,45.6,92.7z"/>
	<path class="st1" d="M34.6,78.3c0.2-0.2,0.3-0.5,0.3-0.8c-0.3-0.1-0.6-0.1-0.9-0.1C34.2,77.7,34.4,78,34.6,78.3z"/>
	<path class="st1" d="M34.9,77.5c0,0.3-0.1,0.6-0.3,0.8c-0.2-0.3-0.4-0.6-0.6-0.9C34.3,77.4,34.6,77.5,34.9,77.5
		C34.9,77.5,34.9,77.5,34.9,77.5l0-48.8v-4.6V17c0-0.8-0.6-1.4-1.4-1.4s-1.4,0.6-1.4,1.4v10.9v5.4v41.1v3.1c0,0,0,0.1,0,0.1
		c-0.4,0.1-0.8,0.2-1.1,0.4c-2.2,1-3.7,3.2-3.7,5.7c0,3.5,2.8,6.3,6.3,6.3c2.1,0,4-1.1,5.1-2.7c0.6-0.8,1-1.8,1.1-2.8
		c0-0.3,0.1-0.5,0.1-0.8C39.9,80.7,37.8,78.2,34.9,77.5z"/>
</g>
</svg>
