<?xml version="1.0" encoding="utf-8"?>
<!-- Generator: Adobe Illustrator 24.3.0, SVG Export Plug-In . SVG Version: 6.00 Build 0)  -->
<svg version="1.1" id="Calque_1" xmlns="http://www.w3.org/2000/svg" xmlns:xlink="http://www.w3.org/1999/xlink" x="0px" y="0px"
	 viewBox="0 0 100.7 102.2" style="enable-background:new 0 0 100.7 102.2;" xml:space="preserve">
<style type="text/css">
	.st0{fill:none;}
	.st1{fill:#FFFFFF;}
</style>
<rect id="Rectangle_60" x="54.9" y="84.5" class="st0" width="31" height="15"/>
<rect id="Rectangle_61" x="14.9" y="84.5" class="st0" width="31" height="15"/>
<g id="Groupe_1802" transform="translate(51.366 1379.547)">
	<g id="Groupe_1791" transform="translate(1090.471 2070.453)">
		<path id="Tracé_1230" class="st1" d="M-1090.4-3391.2c-15.3,0-27.7-12.4-27.7-27.7s12.4-27.7,27.7-27.7s27.7,12.4,27.7,27.7
			C-1062.7-3403.6-1075.1-3391.2-1090.4-3391.2z M-1090.4-3444.4c-14.1,0-25.6,11.4-25.6,25.6c0,14.1,11.4,25.6,25.6,25.6
			c14.1,0,25.6-11.4,25.6-25.6C-1064.9-3433-1076.3-3444.4-1090.4-3444.4L-1090.4-3444.4z"/>
		<g id="Groupe_1790" transform="translate(0 0)">
			<g id="Groupe_1788">
				<path id="Tracé_1243" class="st0" d="M-1109.2-3437.7c10.4-10.4,27.3-10.4,37.7,0c8.1,8.1,10.1,20.4,5.1,30.6
					c-1.3,2.6-3,5-5.1,7.1c-10.4,10.4-27.3,10.4-37.7,0C-1119.6-3410.4-1119.6-3427.3-1109.2-3437.7z"/>
			</g>
			<g id="Groupe_1789" transform="translate(33.154 14.501)">
				<path id="Tracé_1232" class="st0" d="M-1097.4-3436l-2.9,2.3l-7.7-0.4l-3.5,5l2.5,7.4l-3.3,7.6l-5.2,1.3v-5.6l-7.2-3.8
					l-2.3-4.3l0.7-5h9.1l2.9-2.6l-0.7-2.4l-5.2-0.9l-4.3,1.4l-1.3-6.2l2.9-0.5l3.8-0.5v-3.3l3.5-5l5.6,1.7l2-5.1
					C-1108-3454.9-1097.9-3448.3-1097.4-3436z"/>
				<path id="Tracé_1233" class="st1" d="M-1118.6-3411.3v-6.3l-6.9-3.6l-2.6-4.9l0.9-6.3h9.6l2.1-1.9l-0.3-1.1l-4.3-0.8l-5.2,1.7
					l-1.8-8.4l4.1-0.7l2.9-0.4v-2.7l4.1-5.9l5.4,1.6l2.1-5.4l1.1,0.7c0.4,0.3,10.6,7.1,11.1,19.8l0,0.5l-3.6,2.8l-7.5-0.4l-2.8,4.1
					l2.5,7.3l-3.6,8.5L-1118.6-3411.3z M-1123.8-3422.9l7.4,3.9v4.9l3.4-0.9l2.9-6.7l-2.6-7.5l4.1-5.9l7.9,0.4l2.1-1.7
					c-0.6-8.9-6.5-14.7-9-16.7l-1.9,4.7l-5.8-1.8l-2.8,4.1v3.9l-4.7,0.6l-1.8,0.3l0.8,3.9l3.4-1.1l6.1,1.1l1.1,3.7l-3.7,3.4h-8.6
					l-0.5,3.8L-1123.8-3422.9z"/>
			</g>
		</g>
	</g>
	<g id="Groupe_1801" transform="translate(1079.277 2078.971)">
		<g id="Groupe_1794" transform="translate(51.518 23.284)">
			<g id="Groupe_1792" transform="translate(3.423)">
				<path id="Tracé_1235" class="st1" d="M-1126.9-3396.2c-0.6,0-1.1-0.5-1.1-1.1c0-1.3,0-2.4,0-3.6c-0.1-9.6-0.1-14.9,6.3-19.4
					c11.8-8.3,16.2-10.8,19.2-10.5c0.2-0.7,0.4-1.7,0.6-3c2.4-11.9,5.2-23.5,10.2-22.8c1,0.2,1.9,0.8,2.4,1.8
					c2.1,3.5,2.1,12.3,1.8,19c-0.4,7.2-1.4,14.9-2.2,17.1c-3.3,8.7-7.7,14-12.3,19.5c-0.7,0.8-1.4,1.7-2.1,2.5
					c-0.2,0.2-0.5,0.4-0.8,0.4L-1126.9-3396.2L-1126.9-3396.2z M-1103-3428.6c-2.6,0-8.3,3.6-17.5,10.1c-5.5,3.8-5.4,8.2-5.4,17.6
					c0,0.8,0,1.6,0,2.5l20.3,0c0.6-0.7,1.2-1.4,1.8-2.2c4.7-5.6,8.8-10.5,12-18.9c1.4-3.7,3.9-28.6,0.6-34.2
					c-0.2-0.3-0.5-0.7-0.8-0.7c-0.5-0.1-2.2,0.3-4.4,7.2c-1.4,4.6-2.5,9.2-3.4,13.9c-0.3,1.4-0.5,2.4-0.7,3.1c0,0.1,0,0.1-0.1,0.2
					c0.4,0.3,0.7,0.7,1,1.1c2.4,3.9-3.9,10.2-10,14.4c-0.5,0.3-1.2,0.2-1.5-0.3c-0.3-0.5-0.2-1.2,0.3-1.5l0,0
					c6.5-4.5,10.7-9.5,9.4-11.5c-0.2-0.5-0.7-0.8-1.2-0.9C-1102.7-3428.6-1102.9-3428.6-1103-3428.6L-1103-3428.6z"/>
			</g>
			<g id="Groupe_1793" transform="translate(0 58.144)">
				<path id="Tracé_1236" class="st1" d="M-1128-3440.5l0-16l32.2,0l0,16L-1128-3440.5z M-1125.9-3454.3l0,11.7l27.9,0l0-11.7
					L-1125.9-3454.3z"/>
			</g>
		</g>
		<g id="Groupe_1797" transform="translate(0 23.283)">
			<g id="Groupe_1795">
				<path id="Tracé_1238" class="st1" d="M-1088.5-3396.2L-1088.5-3396.2l-21.9,0c-0.3,0-0.6-0.1-0.8-0.4c-0.7-0.9-1.4-1.7-2.1-2.5
					c-4.6-5.6-9-10.8-12.3-19.5c-0.9-2.2-1.9-9.9-2.2-17.1c-0.4-6.7-0.3-15.4,1.8-19c0.5-0.9,1.3-1.6,2.4-1.8
					c5-0.7,7.8,10.9,10.2,22.8c0.3,1.3,0.5,2.3,0.6,3c2.9-0.3,7.3,2.1,19.2,10.5c6.4,4.5,6.4,9.8,6.3,19.4c0,1.1,0,2.3,0,3.6
					C-1087.5-3396.7-1087.9-3396.2-1088.5-3396.2L-1088.5-3396.2L-1088.5-3396.2z M-1109.9-3398.4l20.3,0c0-0.9,0-1.7,0-2.5
					c0.1-9.5,0.1-13.8-5.4-17.6c-9.8-6.9-15.6-10.5-18-10.1c-0.5,0.1-0.9,0.4-1.2,0.9c-1.2,2,2.9,7,9.4,11.5c0.5,0.3,0.6,1,0.3,1.5
					c-0.3,0.5-1,0.6-1.5,0.3c-6.2-4.2-12.5-10.5-10-14.4c0.3-0.4,0.6-0.8,1-1.1c0-0.1-0.1-0.1-0.1-0.2c-0.2-0.7-0.4-1.8-0.7-3.1
					c-0.9-4.7-2-9.3-3.4-13.9c-2.3-7-4-7.3-4.4-7.2c-0.3,0-0.6,0.4-0.8,0.7c-3.3,5.6-0.8,30.5,0.6,34.2c3.2,8.4,7.3,13.3,12,18.9
					C-1111.1-3399.8-1110.5-3399.1-1109.9-3398.4L-1109.9-3398.4z"/>
			</g>
			<g id="Groupe_1796" transform="translate(11.899 58.144)">
				<path id="Tracé_1239" class="st1" d="M-1095.9-3440.5l-32.2,0l0-16l32.2,0L-1095.9-3440.5z M-1125.9-3442.6l27.9,0l0-11.7
					l-27.9,0L-1125.9-3442.6z"/>
			</g>
		</g>
		<g id="Groupe_1799" transform="translate(18.137 0)">
			<g id="Groupe_1798">
				<path id="Tracé_1240" class="st0" d="M-1124.1-3424.6c0,0-12.6-23.9,14.4-30.6C-1106.6-3432.2-1124.1-3424.6-1124.1-3424.6z"/>
				<path id="Tracé_1241" class="st1" d="M-1124.5-3423.2l-0.5-0.9c-0.2-0.4-5.7-11-1.5-20.4c2.6-5.7,8.1-9.7,16.6-11.8l1.2-0.3
					l0.2,1.2c1.6,12.3-2.5,20.2-6.3,24.8c-2.4,2.9-5.4,5.3-8.8,7L-1124.5-3423.2z M-1110.6-3453.8c-7.1,2-11.8,5.4-13.9,10.2
					c-3.1,6.9-0.2,14.8,0.9,17.5c2.7-1.5,5.1-3.6,7.1-6C-1111.6-3437.8-1109.7-3445.2-1110.6-3453.8L-1110.6-3453.8z"/>
			</g>
		</g>
		<g id="Groupe_1800" transform="translate(21.25 9.752)">
			<path id="Tracé_1242" class="st1" d="M-1126.8-3432.8c-0.5,0-1-0.4-1.1-0.9c-0.1-1.1-0.2-2.2-0.2-3.3c0-7.2,2.8-14,7.7-19.2
				c0.4-0.4,1.1-0.4,1.5,0c0.4,0.4,0.4,1.1,0,1.5c-4.6,4.7-7.1,11.1-7.1,17.7c0,1,0.1,2,0.2,3c0.1,0.6-0.3,1.1-0.9,1.2c0,0,0,0,0,0
				C-1126.7-3432.8-1126.8-3432.8-1126.8-3432.8z"/>
		</g>
	</g>
</g>
</svg>
