<?xml version="1.0" encoding="utf-8"?>
<!-- Generator: Adobe Illustrator 24.3.0, SVG Export Plug-In . SVG Version: 6.00 Build 0)  -->
<svg version="1.1" id="Calque_1" xmlns="http://www.w3.org/2000/svg" xmlns:xlink="http://www.w3.org/1999/xlink" x="0px" y="0px"
	 viewBox="0 0 125.4 107.5" style="enable-background:new 0 0 125.4 107.5;" xml:space="preserve">
<style type="text/css">
	.st0{fill:#FFFFFF;}
	.st1{fill:none;}
</style>
<g id="Groupe_1818" transform="translate(-2596.948 -886.022)">
	<path id="Tracé_1244" class="st0" d="M2630.6,949.4c-0.4,0-0.9-0.2-1.1-0.6c-7.4-13-5.9-29.2,3.7-40.7c0.4-0.5,0.9-1,1.4-1.5
		c0.5-0.5,1.3-0.6,1.8-0.1c0.5,0.5,0.6,1.3,0.1,1.8c0,0,0,0,0,0c-0.4,0.5-0.9,0.9-1.3,1.4c-8.9,10.7-10.3,25.8-3.4,37.9
		c0.3,0.6,0.1,1.4-0.5,1.7C2631,949.4,2630.8,949.4,2630.6,949.4L2630.6,949.4z"/>
	<path id="Tracé_1245" class="st0" d="M2690.1,950.3c-0.7,0-1.2-0.6-1.2-1.3c0-0.2,0.1-0.5,0.2-0.6c9.6-15.7,4.6-36.2-11.1-45.8
		c-3-1.8-6.3-3.2-9.7-4c-0.7-0.2-1.1-0.8-0.9-1.5c0.2-0.7,0.8-1.1,1.5-0.9c19.2,4.5,31.2,23.8,26.7,43c-0.9,3.7-2.3,7.2-4.3,10.5
		C2691,950.1,2690.6,950.3,2690.1,950.3z"/>
	<g id="Groupe_1809" transform="translate(2658.311 889.896)">
		<path id="Tracé_1246" class="st0" d="M9.9,11.7L4,6.6L11.4,4L9.9,11.7z"/>
	</g>
	<g id="Groupe_1814" transform="translate(2629.729 886.022)">
		<g id="Groupe_1811" transform="translate(0)">
			<g id="Groupe_1810">
				<path id="Tracé_1248" class="st0" d="M12.8,25.2c-0.5,0-1,0-1.5-0.1c-2.3-0.4-4.4-1.7-5.7-3.7c-1.4-2-1.9-4.5-1.4-6.8
					C5.6,8.6,13,4.4,13.3,4.2C13.9,3.9,14.6,4,15,4.6l9.7,14.3c0.4,0.5,0.3,1.3-0.3,1.7C24.2,20.8,18.4,25.2,12.8,25.2z M13.6,7
					c-1.9,1.3-6.1,4.4-6.9,8.2c-0.4,1.7,0,3.5,1,4.8c0.9,1.4,2.4,2.4,4,2.6c3.8,0.6,8.3-2.1,10.3-3.4L13.6,7z"/>
			</g>
		</g>
		<g id="Groupe_1812" transform="translate(11.21 0.011)">
			<path id="Tracé_1249" class="st0" d="M10.7,5.3L5.2,9L10.7,5.3z"/>
			<path id="Tracé_1250" class="st0" d="M5.2,10.2C4.6,10.2,4,9.7,4,9c0-0.4,0.2-0.8,0.5-1L10,4.3c0.6-0.4,1.4-0.2,1.7,0.4
				c0.3,0.6,0.2,1.3-0.3,1.7L5.9,10C5.7,10.2,5.5,10.2,5.2,10.2z"/>
		</g>
		<g id="Groupe_1813" transform="translate(15.9 6.924)">
			<path id="Tracé_1251" class="st0" d="M10.7,5.3L5.2,9L10.7,5.3z"/>
			<path id="Tracé_1252" class="st0" d="M5.2,10.2C4.6,10.2,4,9.7,4,9c0-0.4,0.2-0.8,0.5-1L10,4.3c0.6-0.4,1.4-0.2,1.7,0.4
				c0.3,0.6,0.2,1.3-0.3,1.7L5.9,10C5.7,10.2,5.5,10.2,5.2,10.2z"/>
		</g>
	</g>
	<path id="Tracé_1253" class="st0" d="M2661,979.1h-28.1c-0.7,0-1.2-0.6-1.2-1.2s0.6-1.2,1.2-1.2h28.1c0.7,0,1.2,0.6,1.2,1.2
		S2661.6,979.1,2661,979.1z"/>
	<g id="Groupe_1815" transform="translate(2596.948 926.829)">
		<path id="Tracé_1255" class="st0" d="M121.4,52.2H4V51c0-10,2.8-17.6,8.4-22.8c7.4-6.8,17.1-7,19.7-6.9L46.4,4H79l14.3,17.2
			c2.6-0.1,12.3,0.1,19.7,6.9c5.6,5.2,8.4,12.8,8.4,22.8L121.4,52.2z M6.5,49.7h112.4c-0.2-8.6-2.8-15.2-7.6-19.7
			c-7.6-7-18.4-6.3-18.5-6.3l-0.6,0.1l-0.4-0.5L77.9,6.5H47.6L33.2,23.8l-0.6-0.1c-0.1,0-10.9-0.8-18.5,6.3
			C9.3,34.5,6.7,41.1,6.5,49.7L6.5,49.7z"/>
	</g>
	<path id="Tracé_1256" class="st0" d="M2688.4,979.1h-30.1c-0.7,0-1.2-0.6-1.2-1.2s0.6-1.2,1.2-1.2h30.1c0.7,0,1.2,0.6,1.2,1.2
		S2689.1,979.1,2688.4,979.1z"/>
	<path id="Tracé_1257" class="st0" d="M2691,950.6h-46.8c-0.7,0-1.2-0.6-1.2-1.2s0.6-1.2,1.2-1.2h46.8c0.7,0,1.2,0.6,1.2,1.2
		S2691.7,950.6,2691,950.6z"/>
	<path id="Tracé_1258" class="st0" d="M2659.7,950.3c-0.7,0-1.2-0.6-1.2-1.2v-17c0-0.7,0.6-1.2,1.2-1.2s1.2,0.6,1.2,1.2v17
		C2660.9,949.8,2660.3,950.3,2659.7,950.3C2659.7,950.3,2659.7,950.3,2659.7,950.3z"/>
	<g id="Groupe_1816" transform="translate(2605.264 960.277)">
		<circle id="Ellipse_26" class="st1" cx="17.4" cy="17.4" r="10.2"/>
		<path id="Tracé_1259" class="st0" d="M17.4,28.9c-6.3,0-11.5-5.1-11.5-11.5S11,5.9,17.4,5.9c6.3,0,11.5,5.1,11.5,11.5
			C28.8,23.8,23.7,28.9,17.4,28.9z M17.4,8.4c-5,0-9,4-9,9s4,9,9,9c5,0,9-4,9-9C26.3,12.5,22.3,8.4,17.4,8.4L17.4,8.4z"/>
	</g>
	<g id="Groupe_1817" transform="translate(2682.339 961.337)">
		<circle id="Ellipse_27" class="st1" cx="16.3" cy="16.4" r="10.2"/>
		<path id="Tracé_1260" class="st0" d="M16.3,27.8c-6.3,0-11.5-5.1-11.5-11.5S10,4.9,16.3,4.9c6.3,0,11.5,5.1,11.5,11.5
			C27.8,22.7,22.7,27.8,16.3,27.8z M16.3,7.4c-5,0-9,4-9,9c0,5,4,9,9,9c5,0,9-4,9-9C25.3,11.4,21.3,7.4,16.3,7.4L16.3,7.4z"/>
	</g>
</g>
</svg>
