<?xml version="1.0" encoding="utf-8"?>
<!-- Generator: Adobe Illustrator 24.3.0, SVG Export Plug-In . SVG Version: 6.00 Build 0)  -->
<svg version="1.1" id="Calque_1" xmlns="http://www.w3.org/2000/svg" xmlns:xlink="http://www.w3.org/1999/xlink" x="0px" y="0px"
	 viewBox="0 0 125.4 107.5" style="enable-background:new 0 0 125.4 107.5;" xml:space="preserve">
<style type="text/css">
	.st0{fill:#FFFFFF;}
	.st1{fill:none;}
</style>
<g id="Groupe_1827" transform="translate(-4142.636 -2746.89)">
	<path id="Tracé_1261" class="st0" d="M4242.4,2835.6c-0.7,0-1.2-0.5-1.2-1.2c0-0.3,0.1-0.6,0.3-0.8c18-19.6,16.7-50-2.9-68
		c-8-7.3-18.2-11.8-29-12.5c-8.5-0.6-16.9,1-24.5,4.7c-0.6,0.3-1.3,0-1.6-0.6c-0.3-0.6,0-1.2,0.5-1.5c25.1-12.2,55.3-1.8,67.5,23.3
		c3.9,8,5.6,16.9,5,25.8c-0.8,11.4-5.4,22.1-13.2,30.5C4243,2835.5,4242.7,2835.6,4242.4,2835.6z"/>
	<g id="Groupe_1820" transform="translate(4142.636 2760.404)">
		<path id="Tracé_1262" class="st0" d="M63.5,91.2c-1.2,0-2.5,0-3.7-0.1C31.9,89,11,64.8,13.1,37C14,24.4,19.6,12.7,28.7,4
			c0.5-0.5,1.2-0.5,1.7,0c0.5,0.5,0.5,1.2,0,1.7c0,0-0.1,0.1-0.1,0.1c-19.3,18.3-20.1,48.7-1.9,68C43.8,90,68.3,93.5,87.6,82.3
			c0.6-0.4,1.3-0.2,1.7,0.4c0.4,0.6,0.2,1.3-0.4,1.7c0,0,0,0-0.1,0C81.1,88.8,72.4,91.2,63.5,91.2z"/>
		<g id="Groupe_1819" transform="translate(71.476 73.897)">
			<path id="Tracé_1263" class="st0" d="M12.9,5.8l11-2.1l-3.7,10.5L12.9,5.8z"/>
		</g>
	</g>
	<g id="Groupe_1821" transform="translate(4163.832 2748.082)">
		<path id="Tracé_1264" class="st0" d="M24.1,13.5l-11.1-0.4l5.9-9.5L24.1,13.5z"/>
	</g>
	<g id="Groupe_1822" transform="translate(4163.977 2763.532)">
		<path id="Tracé_1265" class="st1" d="M36.9,43c3.8-3.7,17.5-15.9-5-38.1C11.7,25.1,20,26.6,25.6,32.8c-9.1-2.2-12.3,1.4-11.2,8.9
			C15.2,47.6,18,61.3,36.9,43z"/>
		<path id="Tracé_1266" class="st0" d="M21.8,53.4c-0.8,0-1.6-0.1-2.3-0.4c-4.9-1.7-5.9-8.6-6.3-11.2c-0.6-4.2,0.1-7.2,2.1-9
			c1.6-1.4,3.8-2,6.8-1.8c-2.1-1.9-4.1-4-4.2-7.2C17.8,19.3,21.7,13.4,31,4c0.5-0.5,1.2-0.5,1.7,0c8.7,8.5,13,16.6,13,24.1
			c-0.1,8.2-5.4,13.3-7.7,15.5l-0.2,0.2C31.1,50.2,25.9,53.4,21.8,53.4z M20.9,33.3c-1.5-0.1-2.9,0.3-4.1,1.3
			c-1.4,1.3-1.8,3.6-1.3,6.9c0.5,3.5,1.5,8.2,4.7,9.3c2.3,0.8,7,0,15.8-8.6l0.2-0.2c2.3-2.2,7-6.7,7-13.8c0-6.5-3.8-13.8-11.4-21.5
			c-8,8.1-11.7,13.6-11.6,17.2c0,2.3,1.7,3.8,3.7,5.8c0.8,0.8,1.7,1.5,2.5,2.4c0.4,0.5,0.4,1.3-0.1,1.7c-0.3,0.3-0.7,0.4-1.1,0.3
			C23.9,33.6,22.4,33.4,20.9,33.3z M36.9,43L36.9,43z"/>
	</g>
	<g id="Groupe_1823" transform="translate(4177.644 2794.105)">
		<path id="Tracé_1267" class="st1" d="M23.3,12.5c3.7-3.8,15.9-17.5,38.1,5c-20.2,20.2-21.7,11.9-27.9,6.3
			c2.2,9.1-1.4,12.3-8.9,11.2C18.7,34.2,5,31.4,23.3,12.5z"/>
		<path id="Tracé_1268" class="st0" d="M27.2,36.5c-0.9,0-1.8-0.1-2.7-0.2c-2.6-0.4-9.5-1.4-11.2-6.3c-1.5-4.4,1.5-10.4,9.1-18.3
			l0.2-0.2c2.2-2.3,7.4-7.7,15.5-7.7h0.1c7.4,0,15.5,4.4,23.9,13c0.5,0.5,0.5,1.2,0,1.7C52.9,27.7,47,31.6,42.5,31.5
			c-3.2-0.1-5.2-2.1-7.2-4.2c0.2,3-0.4,5.3-1.8,6.8C32.1,35.7,30,36.5,27.2,36.5z M38.3,6.1h-0.1c-7.2,0-11.7,4.7-13.8,7l-0.2,0.2
			c-8.5,8.8-9.4,13.5-8.6,15.8c1.1,3.2,5.8,4.2,9.3,4.7c3.3,0.5,5.6,0,6.9-1.3c1.4-1.5,1.6-4.4,0.7-8.4c-0.2-0.6,0.2-1.3,0.9-1.4
			c0.4-0.1,0.8,0,1.1,0.3c0.9,0.8,1.7,1.7,2.4,2.5c1.9,2.1,3.5,3.7,5.8,3.7h0.1c3.6,0,9-3.7,17.1-11.6C52,9.9,44.8,6.1,38.3,6.1z
			 M23.3,12.5L23.3,12.5z"/>
	</g>
	<g id="Groupe_1826" transform="translate(4171.533 2765.298)">
		<g id="Groupe_1824" transform="translate(22.078 0)">
			<path id="Tracé_1269" class="st0" d="M14.1,35.7c-0.7,0-1.2-0.5-1.2-1.2c0-0.3,0.1-0.6,0.4-0.8c5.4-5.4,7.1-11.8,4.9-18.8
				c-1.1-3.3-2.7-6.4-5-9.1c-0.4-0.5-0.3-1.3,0.2-1.7c0.5-0.4,1.2-0.4,1.6,0.1c2.5,3,4.3,6.4,5.5,10c1.7,5.5,2.1,13.6-5.5,21.2
				C14.8,35.5,14.4,35.7,14.1,35.7z"/>
		</g>
		<g id="Groupe_1825" transform="translate(22.078 23.406)">
			<path id="Tracé_1270" class="st0" d="M43.7,12.3c-0.3,0-0.6-0.1-0.8-0.3c-2.7-2.2-5.8-3.9-9.2-5c-7-2.1-13.3-0.5-18.7,4.9
				c-0.5,0.5-1.2,0.5-1.7,0c-0.5-0.5-0.5-1.2,0-1.7C20.9,2.6,29,3,34.5,4.7c3.7,1.2,7.1,3,10,5.5c0.5,0.4,0.5,1.2,0.1,1.7
				C44.4,12.1,44,12.3,43.7,12.3L43.7,12.3z"/>
		</g>
		<path id="Tracé_1271" class="st0" d="M14.1,57.7c-0.7,0-1.2-0.5-1.2-1.2c0-0.3,0.1-0.6,0.4-0.8l22.1-22.1c0.5-0.5,1.2-0.5,1.7,0
			c0.5,0.5,0.5,1.2,0,1.7l0,0L15,57.4C14.8,57.6,14.5,57.7,14.1,57.7z"/>
	</g>
</g>
</svg>
