<?xml version="1.0" encoding="utf-8"?>
<!-- Generator: Adobe Illustrator 24.3.0, SVG Export Plug-In . SVG Version: 6.00 Build 0)  -->
<svg version="1.1" id="Calque_1" xmlns="http://www.w3.org/2000/svg" xmlns:xlink="http://www.w3.org/1999/xlink" x="0px" y="0px"
	 viewBox="0 0 98.7 98.6" style="enable-background:new 0 0 98.7 98.6;" xml:space="preserve">
<style type="text/css">
	.st0{fill:#FFFFFF;}
</style>
<g>
	<path class="st0" d="M49.3,1.9C23.3,1.9,2.2,23,2.2,49s21.1,47.2,47.2,47.2S96.5,75.1,96.5,49S75.4,1.9,49.3,1.9z M65.6,50
		c-0.2,0.3-0.4,0.5-0.7,0.7l-12.3,7.1l-12.3,7.1c-0.9,0.5-2.1,0.2-2.7-0.7c-0.2-0.3-0.3-0.6-0.3-1V34.9c0-1.1,0.9-2,1.9-2
		c0.3,0,0.7,0.1,1,0.3l12.3,7.1l12.3,7.1C65.8,47.9,66.1,49.1,65.6,50z"/>
</g>
</svg>
